<svg xmlns="http://www.w3.org/2000/svg" version="1.1" xmlns:xlink="http://www.w3.org/1999/xlink" xmlns:svgjs="http://svgjs.dev/svgjs" width="1500" height="1500" viewBox="0 0 1500 1500"><rect width="1500" height="1500" fill="#ffffff"></rect><g transform="matrix(0.6666666666666666,0,0,0.6666666666666666,249.39393939393938,604.4521463045606)"><svg viewBox="0 0 396 115" data-background-color="#ffffff" preserveAspectRatio="xMidYMid meet" height="435" width="1500" xmlns="http://www.w3.org/2000/svg" xmlns:xlink="http://www.w3.org/1999/xlink"><g id="tight-bounds" transform="matrix(1,0,0,1,0.2400000000000091,0.217252327501825)"><svg viewBox="0 0 395.52 114.56549534499636" height="114.56549534499636" width="395.52"><g><svg viewBox="0 0 608.4916521788751 176.2544183484225" height="114.56549534499636" width="395.52"><g transform="matrix(1,0,0,1,212.97165217887516,10.361502727023321)"><svg viewBox="0 0 395.52 155.53141289437585" height="155.53141289437585" width="395.52"><g id="textblocktransform"><svg viewBox="0 0 395.52 155.53141289437585" height="155.53141289437585" width="395.52" id="textblock"><g><svg viewBox="0 0 395.52 155.53141289437585" height="155.53141289437585" width="395.52"><g transform="matrix(1,0,0,1,0,0)"><svg width="395.52" viewBox="0.55 -43 109.34 43" height="155.53141289437585" data-palette-color="#335a02"><path d="M17.6 0L5.85 0 0.55-43 8.75-43 11.9-13.75 14.7-43 22.9-43 17.6 0ZM43.1 0L25.35 0 25.35-42.95 42.55-42.95 42.55-34.65 34.1-34.65 34.1-26.3 42.2-26.3 42.2-18.2 34.1-18.2 34.1-8.35 43.1-8.35 43.1 0ZM45.95 0L45.95-42.95 57.59-42.95Q62.3-42.95 64.42-40.65 66.55-38.35 66.55-33.15L66.55-33.15 66.55-31.25Q66.55-25.1 62.15-23.9L62.15-23.9Q64.84-23.2 65.95-20.65 67.05-18.1 67.05-13.9L67.05-13.9Q67.05-7.05 65-3.53 62.95 0 57.59 0L57.59 0 45.95 0ZM54.34-26.8L56.09-26.8Q57.2-26.8 57.59-27.63 58-28.45 58-29.95L58-29.95 58-34.25Q58-36.35 56.15-36.35L56.15-36.35 54.34-36.35 54.34-26.8ZM55.2-7.55Q58.55-7.55 58.55-10.75L58.55-10.75 58.55-16.1Q58.55-18.05 57.97-19.05 57.4-20.05 55.95-20.05L55.95-20.05 54.34-20.05 54.34-7.6 55.2-7.55ZM87.34 0L69.89 0 69.89-42.95 78.49-42.95 78.49-7.3 87.34-7.3 87.34 0ZM103.04 0L94.94 0 94.94-14.15 88.09-42.95 96.59-42.95 98.99-28.4 101.39-42.95 109.89-42.95 103.04-14.15 103.04 0Z" opacity="1" transform="matrix(1,0,0,1,0,0)" fill="#335a02" class="wordmark-text-0" data-fill-palette-color="primary" id="text-0"></path></svg></g></svg></g></svg></g></svg></g><g><svg viewBox="0 0 176.2544183484225 176.2544183484225" height="176.2544183484225" width="176.2544183484225"><g><svg xmlns="http://www.w3.org/2000/svg" xmlns:xlink="http://www.w3.org/1999/xlink" version="1.0" x="0" y="0" viewBox="20 20 60 60" enable-background="new 0 0 100 100" xml:space="preserve" height="176.2544183484225" width="176.2544183484225" class="icon-icon-0" data-fill-palette-color="accent" id="icon-0"><path d="M20 26.667c3.682 0 6.667 2.988 6.667 6.667v30C26.667 72.539 34.128 80 43.333 80 52.539 80 60 72.539 60 63.334V40c0-1.842 1.491-3.333 3.333-3.333 1.843 0 3.334 1.491 3.334 3.333v16.666C66.667 64.023 72.637 70 80 70v-6.666c-3.682 0-6.667-2.988-6.667-6.668V40c0-5.524-4.479-10-10-10-5.521 0-10 4.476-10 10v23.334c0 5.523-4.479 10-10 10-5.521 0-10-4.477-10-10v-30C33.333 25.973 27.363 20 20 20V26.667z" fill="#99a28e" data-fill-palette-color="accent"></path></svg></g></svg></g></svg></g><defs></defs></svg><rect width="395.52" height="114.56549534499636" fill="none" stroke="none" visibility="hidden"></rect></g></svg></g></svg>